<svg width="50" height="50" viewBox="0 0 50 50" fill="none" xmlns="http://www.w3.org/2000/svg">
<path fill-rule="evenodd" clip-rule="evenodd" d="M32.3449 13.3711C31.3277 10.2039 29.696 7.40078 27.3968 4.98867C26.8156 4.37852 26.1695 3.81953 25.764 3.06055C25.5078 2.58008 25.2636 2.09297 25.014 1.60938L24.8554 1.21055L24.8113 1.36758C24.7906 2.15664 24.3437 2.69141 23.7874 3.19102C23.1609 3.75274 22.5781 4.36289 21.9765 4.95235L20.1265 7.38555L18.6308 10.1363L17.6304 12.8375L17.6003 12.8793C17.0499 14.6875 16.7785 16.5469 16.6453 18.4242C16.5949 19.1301 16.6527 19.8457 16.6921 20.5551C16.7488 21.5691 16.9249 22.5656 17.189 23.5473C18.1488 27.1121 20.0968 30.0688 22.7605 32.5813C23.255 33.048 23.7898 33.4727 24.3058 33.9164L24.5343 34.7008L24.7468 35.918L24.8484 37.1887C24.8472 37.4465 24.8367 37.7055 24.8519 37.9625C24.8562 38.0285 24.9421 38.0895 24.9906 38.1527L25.4218 38.3043L25.8706 38.4789L25.7937 37.3496L25.7902 36.2371L25.9453 34.5426L26.0578 34.1738L26.38 33.6031C26.7777 33.2836 27.2039 32.993 27.566 32.6371C28.221 31.9938 28.8749 31.3414 29.4613 30.6363C30.2241 29.7224 30.8757 28.7211 31.4023 27.6535C31.7535 26.9375 32.0847 26.207 32.3585 25.459C32.5999 24.7996 32.7496 24.1063 32.9398 23.4277L32.9898 23.2813C33.3824 21.45 33.4484 19.6 33.3042 17.7383C33.1882 16.2379 32.8355 14.7898 32.3449 13.3711V13.3711ZM24.5714 33.0098C24.6316 32.7086 24.7062 32.409 24.7605 32.1066C24.7062 32.409 24.632 32.7086 24.5714 33.0098ZM25.9062 33.2176L25.6539 32.6648L25.9062 33.2176L26.2769 33.5344L25.9062 33.2176ZM41.5914 40.2203C41.2687 39.602 40.7953 39.1324 40.1695 38.8242C39.6453 38.5664 39.0816 38.4531 38.5019 38.4367C38.0675 38.4242 37.6316 38.4465 37.1964 38.452C36.8101 38.4566 36.4234 38.4633 36.0371 38.4598C35.5828 38.4551 35.1285 38.4414 34.6742 38.4285C34.5988 38.4262 34.5453 38.4414 34.5101 38.518C34.455 38.6371 34.3898 38.752 34.3222 38.8824L34.398 38.9066C34.6234 38.9465 34.8499 38.9805 35.0742 39.0254C35.3624 39.0828 35.4921 39.2484 35.5054 39.4914C35.5249 39.8375 35.5328 40.1844 35.5316 40.5313C35.5257 41.9039 35.516 43.2766 35.5058 44.6488C35.505 44.7395 35.5035 44.834 35.4789 44.9191C35.4503 45.0176 35.4195 45.1449 35.346 45.1934C35.2139 45.2782 35.0656 45.3348 34.9105 45.3594C34.6914 45.3953 34.6546 45.4051 34.5863 45.6207L34.5566 45.7285C34.5238 45.8461 34.5414 45.8691 34.664 45.8703C35.3679 45.8781 36.0714 45.8934 36.7749 45.891C37.4167 45.8887 38.0585 45.9277 38.698 45.807C39.3023 45.6934 39.8664 45.4941 40.3812 45.157C41.0492 44.7191 41.5296 44.134 41.7831 43.3703C41.9878 42.7535 42.0335 42.1242 41.964 41.4793C41.9206 41.0398 41.7942 40.6126 41.5914 40.2203V40.2203ZM40.3582 43.9941C39.9816 44.6949 39.4199 45.1629 38.6171 45.2863C38.1144 45.3633 37.6109 45.341 37.1316 45.1508C36.8281 45.0305 36.7152 44.7684 36.7058 44.4586C36.6972 44.155 36.6929 43.8514 36.6929 43.5477C36.6914 42.4797 36.6914 41.4117 36.6929 40.3441C36.6937 40.0078 36.6996 39.6707 36.705 39.334C36.7089 39.0973 36.7585 39.018 36.9894 38.9988C38.0035 38.9137 38.971 39.023 39.7746 39.7367C40.2714 40.1781 40.5542 40.741 40.6718 41.3875C40.7207 41.657 40.7355 41.9328 40.766 42.2063C40.7414 42.8305 40.657 43.4379 40.3582 43.9941ZM48.8695 42.8375C48.6695 42.3508 48.2906 42.0457 47.8144 41.8504C47.6519 41.7836 47.4843 41.7285 47.3089 41.6637L47.3703 41.6246C47.5597 41.5031 47.7707 41.4051 47.9339 41.2555C48.3308 40.8918 48.4957 40.4344 48.4183 39.891C48.3449 39.3742 48.0871 38.9949 47.6265 38.7488C47.2085 38.5262 46.7578 38.4449 46.2914 38.4453C45.4843 38.4461 44.6769 38.4582 43.8699 38.4598C43.5917 38.4602 43.3136 38.4395 43.0355 38.4355C42.9816 38.4348 42.9015 38.4484 42.8785 38.4844C42.8148 38.582 42.7726 38.6945 42.7273 38.8031C42.7011 38.8664 42.7269 38.9012 42.7992 38.9105C42.9933 38.9371 43.1871 38.9703 43.3816 38.9992C43.6503 39.0395 43.7804 39.1793 43.7968 39.45L43.8003 39.6105C43.8007 40.4523 43.8035 41.2941 43.7999 42.1359C43.7949 42.9766 43.787 43.8172 43.7761 44.6578C43.7749 44.7637 43.7605 44.8699 43.7453 44.975C43.7222 45.1336 43.6374 45.243 43.4749 45.2773L43.0152 45.368C42.9609 45.3789 42.8824 45.3773 42.8601 45.4109C42.7757 45.5371 42.7078 45.675 42.7171 45.8414L42.7644 45.8543L44.3085 45.8922L44.6183 45.891C45.1527 45.8848 45.6878 45.8953 46.2214 45.868C46.7992 45.8391 47.3417 45.6676 47.8433 45.3727C48.3773 45.0582 48.7882 44.6438 48.9343 44.0203C49.0281 43.6223 49.0285 43.2219 48.8695 42.8375V42.8375ZM44.9464 39.2512C44.9488 39.082 45.0234 39.0086 45.1914 39.0043C45.605 38.993 46.016 38.9953 46.4152 39.1379C46.9316 39.3223 47.2492 39.7676 47.2433 40.3117C47.2406 40.5207 47.2437 40.7277 47.1667 40.9285C47.0148 41.3238 46.7234 41.5324 46.3101 41.573C46.0945 41.5949 45.8769 41.5973 45.6847 41.6074L45.0433 41.5793C44.9582 41.5762 44.921 41.5387 44.9214 41.4512L44.9464 39.2512V39.2512ZM47.605 44.5223C47.3984 44.9719 47.0218 45.2082 46.5503 45.2902C46.1746 45.3547 45.7893 45.3378 45.4207 45.2406C45.1449 45.1699 45.0324 44.9484 44.9773 44.7027C44.9402 44.5383 44.9464 44.3426 44.9433 44.1715C44.9382 43.9074 44.9421 43.3594 44.9421 43.3594H44.9367C44.9367 42.9688 44.9378 42.6305 44.9355 42.2559C44.9351 42.175 44.9488 42.1348 45.0476 42.1379C45.3984 42.1484 45.7503 42.1543 46.1011 42.168C46.4148 42.1801 46.7085 42.273 46.9847 42.4219C47.405 42.6484 47.6582 42.9953 47.7277 43.4719C47.7808 43.8332 47.7582 44.1887 47.605 44.5223V44.5223ZM9.09448 44.9434L9.1019 42.8195C9.10307 42.5 9.06245 42.1867 8.95776 41.8836C8.66909 41.0488 7.87299 40.6688 7.04409 40.9684C6.66713 41.1047 6.32924 41.3113 6.00659 41.5457C5.8187 41.6824 5.8187 41.6824 5.68276 41.4875C5.29799 40.9359 4.74838 40.7473 4.10854 40.9508C3.69487 41.082 3.33315 41.3066 2.99057 41.5676C2.95854 41.5918 2.89409 41.6188 2.87495 41.6043C2.84291 41.5805 2.82065 41.5238 2.82143 41.4813L2.84487 41.1039C2.84682 41.0246 2.83159 40.9449 2.82377 40.8617C2.66909 40.9152 2.54565 40.9688 2.41635 41C2.01674 41.0977 1.6144 41.1875 1.21245 41.2793C1.11518 41.3016 1.01245 41.3309 1.00307 41.4426C0.993305 41.5523 1.09916 41.5707 1.1812 41.6035C1.35385 41.673 1.52534 41.7469 1.69604 41.8219C1.8394 41.8852 1.89291 41.9996 1.89213 42.1535C1.8894 42.8117 1.8937 43.4691 1.88979 44.1273C1.88823 44.3949 1.87573 44.6621 1.86362 44.9297C1.85268 45.1668 1.77182 45.266 1.54213 45.3258C1.42026 45.3578 1.29643 45.3793 1.17377 45.4082C1.14682 45.4145 1.10073 45.4316 1.10034 45.4449C1.09526 45.5609 1.08901 45.6797 1.10854 45.7926C1.11245 45.8129 1.2351 45.8129 1.30307 45.8207L1.34877 45.818C1.82221 45.8109 2.29565 45.8035 2.76948 45.7984C3.02065 45.7957 3.27143 45.798 3.54409 45.798L3.57338 45.4191C3.41713 45.3906 3.27768 45.3691 3.14018 45.3391C2.92573 45.2922 2.83432 45.1785 2.82885 44.9621L2.82495 44.6523C2.8226 43.8488 2.81948 43.0457 2.81948 42.2422C2.81948 42.1254 2.86791 42.0328 2.97065 41.9629C3.18823 41.816 3.41791 41.6992 3.67221 41.634C4.20815 41.4969 4.67299 41.6875 4.87924 42.1434C4.94448 42.2871 4.99565 42.4461 5.0101 42.6023C5.08588 43.4078 5.05307 44.2141 5.00737 45.0195C4.9976 45.1934 4.91596 45.2809 4.74448 45.3234L4.34135 45.4086C4.30893 45.4168 4.26167 45.3949 4.25932 45.4219C4.25034 45.5332 4.25542 45.7039 4.25542 45.7039H4.35151L5.57885 45.7441C5.91518 45.7434 6.2519 45.784 6.58784 45.7926C6.64799 45.7938 6.70151 45.8027 6.70502 45.7332C6.70887 45.6253 6.70743 45.5172 6.70073 45.4094L6.63667 45.398L6.29096 45.3203C6.05776 45.2652 5.97729 45.1766 5.97651 44.9406C5.97377 44.359 5.98159 43.7777 5.97651 43.1965C5.97352 42.864 5.96114 42.5317 5.9394 42.2C5.93354 42.1117 5.94721 42.0539 6.01752 42.0043C6.22132 41.8553 6.4506 41.7448 6.69409 41.6781C7.44995 41.4789 8.0687 41.8934 8.10776 42.6727C8.14604 43.4242 8.13002 44.1785 8.12417 44.9316C8.12221 45.1938 8.03549 45.273 7.77729 45.3434L7.68823 45.3664C7.42377 45.4297 7.42612 45.4297 7.44174 45.7105C7.44682 45.7984 7.47104 45.8211 7.56479 45.8188C8.10346 45.8066 8.64213 45.8035 9.18081 45.7988C9.40112 45.7969 9.62143 45.7988 9.86127 45.7988L9.9101 45.4332C9.69956 45.3773 9.50542 45.3359 9.31792 45.2746C9.15229 45.2184 9.0937 45.1184 9.09448 44.9434V44.9434ZM27.6449 41.7242C27.8667 41.5184 27.8683 41.2465 27.8062 40.9445C27.6304 41.1285 27.4335 41.2133 27.2089 41.2293C26.9078 41.2508 26.6121 41.2246 26.3316 41.1047C25.573 40.7789 24.8261 40.802 24.0816 41.1594C23.4554 41.4594 23.0703 41.927 23.0316 42.6359C23.007 43.0902 23.0921 43.5203 23.3953 43.8816C23.5769 44.098 23.8101 44.2383 24.073 44.3352C24.1863 44.377 24.1949 44.4309 24.0999 44.5031C24.0298 44.5561 23.9572 44.6056 23.8824 44.6516C23.7237 44.7513 23.5641 44.8495 23.4035 44.9461C23.3093 45.0031 23.2773 45.0758 23.3082 45.1871C23.3984 45.5145 23.6308 45.7035 23.9214 45.8414L24.0273 45.9152L23.9347 46.0078C23.6499 46.2387 23.3539 46.4566 23.0812 46.7016C22.8523 46.9074 22.7785 47.1832 22.8476 47.4875C22.9871 48.0949 23.3898 48.4707 23.9613 48.6434C24.9601 48.9457 25.898 48.7723 26.7531 48.1805C27.2601 47.8293 27.6238 47.3723 27.7343 46.7434C27.8582 46.0367 27.4656 45.4234 26.7628 45.2969C26.298 45.2125 25.8222 45.1883 25.3519 45.1344C25.1324 45.1094 24.9097 45.0945 24.696 45.0441C24.5144 45.0012 24.4242 44.8531 24.441 44.7086C24.4578 44.5664 24.6089 44.434 24.782 44.4203C25.1304 44.3922 25.4718 44.3379 25.7929 44.191C26.6437 43.802 27.0386 43.1207 26.9398 42.2035C26.9269 42.0801 26.8988 41.9582 26.8734 41.8145C27.1456 41.8602 27.4242 41.9293 27.6449 41.7242V41.7242ZM25.0632 46.0277C25.4093 46.0379 25.8031 46.0594 26.1835 46.1707C26.5183 46.2684 26.7937 46.4395 26.8749 46.8133C26.973 47.2648 26.7558 47.7141 26.3187 47.9555C25.9093 48.1813 25.4648 48.2 25.014 48.1535C24.6281 48.1137 24.2808 47.9801 24.0027 47.6949C23.6363 47.3195 23.6343 46.8 24.0011 46.4258C24.3289 46.0914 24.5042 46.0223 25.0632 46.0277V46.0277ZM25.9292 43.3082C25.7277 43.9531 25.141 44.0422 24.6812 43.8359C24.2894 43.6605 24.1187 43.3152 24.0292 42.9211C23.9945 42.7695 23.9863 42.6121 23.966 42.457C23.9742 42.2348 24.0109 42.0215 24.1066 41.8215C24.3999 41.2055 25.1207 41.2422 25.5195 41.5211C25.6906 41.6406 25.8097 41.8031 25.8843 41.9957C26.0504 42.4149 26.0663 42.8786 25.9292 43.3082V43.3082ZM22.2691 45.3641C22.1295 45.3427 21.9916 45.3119 21.8562 45.2719C21.6187 45.1992 21.5898 45.1547 21.5871 44.9035C21.58 44.2035 21.5753 43.5035 21.5675 42.8039C21.5636 42.4891 21.5261 42.1785 21.4296 41.8777C21.1757 41.0848 20.398 40.659 19.6199 40.893C19.1886 41.023 18.8183 41.2648 18.4734 41.5488L18.3476 41.6453L18.348 41.516C18.3562 41.3672 18.3722 41.2184 18.371 41.0695C18.3703 40.9918 18.3406 40.9137 18.3261 40.8453C18.032 40.934 17.7683 41.023 17.4992 41.091C17.2292 41.159 16.9539 41.2051 16.6808 41.2605C16.5453 41.2879 16.4457 41.3699 16.448 41.4633C16.4515 41.5949 16.5605 41.6203 16.6558 41.6598C16.8285 41.7305 17.0007 41.802 17.1714 41.8777C17.2933 41.932 17.3429 42.0328 17.3417 42.1637C17.3332 43.0734 17.3277 43.9836 17.3144 44.8938C17.3105 45.1813 17.2378 45.257 16.955 45.3203L16.8316 45.3449C16.5699 45.3898 16.5624 45.4004 16.5804 45.6766L16.582 45.7223C16.5789 45.8285 16.6253 45.8629 16.7347 45.8617C17.43 45.8535 18.1257 45.8496 18.821 45.8523C19.1191 45.8535 19.1511 45.8301 19.1449 45.5238L19.1308 45.3922C18.9605 45.3637 18.7976 45.343 18.6382 45.3078C18.4714 45.2707 18.4117 45.2023 18.396 45.0328C18.3816 44.8777 18.3769 44.7203 18.3753 44.5641C18.3675 43.8488 18.3613 43.1336 18.3578 42.4188C18.357 42.2387 18.3902 42.0715 18.5558 41.9555C18.7996 41.7813 19.087 41.6782 19.3859 41.6578C20.0062 41.6152 20.4777 41.9828 20.5113 42.6012C20.5527 43.3641 20.5402 44.1297 20.5499 44.8941C20.5507 44.9512 20.5406 45.0086 20.5328 45.0652C20.5179 45.177 20.4632 45.2609 20.3499 45.2898C20.2394 45.3188 20.1273 45.3445 20.0144 45.3617C19.846 45.3867 19.8425 45.3855 19.8296 45.5555L19.8339 45.6699C19.8539 45.8676 19.8542 45.8617 20.0542 45.8598C20.7269 45.8543 21.3992 45.8508 22.0714 45.8516C22.3527 45.8523 22.3726 45.8391 22.3749 45.5492L22.3742 45.4805C22.3785 45.4063 22.3453 45.3762 22.2691 45.3641V45.3641ZM31.6644 40.941C30.9593 40.7688 30.2906 40.8969 29.6554 41.2254C29.0382 41.5445 28.6257 42.0379 28.4687 42.7191C28.3101 43.4078 28.3859 44.0797 28.6902 44.7191C28.8882 45.1344 29.1929 45.4555 29.6078 45.6641C30.5789 46.1531 31.7667 45.9313 32.5285 45.277C33.1296 44.7609 33.3503 44.0738 33.3636 43.2234C33.3554 43.1383 33.3472 42.9742 33.3246 42.8117C33.1968 41.8859 32.5558 41.159 31.6644 40.941V40.941ZM32.1984 44.5172C32.0113 45.2539 31.3742 45.5813 30.6554 45.3281C30.2886 45.1992 30.0144 44.9527 29.83 44.6195C29.4058 43.8539 29.3242 43.0398 29.5656 42.2047C29.7265 41.6484 30.1843 41.3441 30.7289 41.3824C31.2156 41.4164 31.5898 41.65 31.8644 42.0461C32.1539 42.4641 32.2656 42.9395 32.2953 43.4387C32.3003 43.5188 32.296 43.5988 32.296 43.6793L32.3304 43.6832C32.2874 43.9617 32.2671 44.2457 32.1984 44.5172V44.5172ZM13.9312 40.9289C13.1894 40.7594 12.4945 40.927 11.8507 41.3039C11.2941 41.6297 10.9343 42.1164 10.7964 42.7523C10.6671 43.3465 10.7199 43.9305 10.9304 44.4996C11.0585 44.8465 11.2527 45.1516 11.5374 45.3895C12.1371 45.8898 12.8378 46.0164 13.5835 45.877C14.2148 45.7586 14.7695 45.4781 15.1726 44.9535C15.5499 44.4629 15.6937 43.8996 15.7085 43.2891C15.6863 43.0957 15.6808 42.8988 15.6398 42.7102C15.4359 41.7684 14.8851 41.1465 13.9312 40.9289V40.9289ZM14.5363 44.5148C14.3554 45.2477 13.7081 45.5832 12.9945 45.3301C12.5363 45.1672 12.2378 44.8316 12.0492 44.4016C11.7468 43.7105 11.6851 42.9914 11.8808 42.2625C12.0308 41.7051 12.4828 41.2945 13.1746 41.393C13.5992 41.4531 13.9304 41.6699 14.1773 42.0148C14.5109 42.4801 14.6206 43.0129 14.6359 43.5727V43.6871L14.664 43.6914C14.623 43.9664 14.6027 44.2461 14.5363 44.5148V44.5148Z" fill="#4FAA41"/>
</svg>
