<svg width="50" height="50" viewBox="0 0 50 50" fill="none" xmlns="http://www.w3.org/2000/svg">
<path d="M0.781641 35.3352H2.38633V28.9981L4.8707 34.5227C5.16367 35.1914 5.56484 35.4277 6.35195 35.4277C7.13906 35.4277 7.525 35.1914 7.81797 34.5227L10.3023 28.9981V35.3352H11.907V29.0086C11.907 28.3914 11.6602 28.0926 11.1508 27.9387C9.93164 27.5582 9.11367 27.8875 8.74336 28.7106L6.30547 34.1629L3.94492 28.7102C3.58984 27.8875 2.75664 27.5582 1.5375 27.9383C1.02813 28.0926 0.78125 28.391 0.78125 29.0082V35.3352H0.781641ZM13.2418 30.1766H14.8461V33.668C14.8312 33.8574 14.907 34.3027 15.7859 34.3168C16.2344 34.3238 19.2477 34.3168 19.2758 34.3168V30.1594H20.884C20.8914 30.1594 20.8824 35.8289 20.8824 35.8523C20.891 37.2508 19.1477 37.5543 18.3437 37.5777H13.2766V36.4981C13.2852 36.4981 18.3402 36.4992 18.3527 36.4977C19.3859 36.3887 19.2637 35.8754 19.2633 35.7027V35.2816H15.8527C14.266 35.2672 13.2551 34.5746 13.2422 33.7777C13.2414 33.7047 13.277 30.2117 13.2418 30.1766V30.1766Z" fill="#00618A"/>
<path d="M22.1211 35.3352H26.7352C27.2754 35.3352 27.8004 35.2223 28.2168 35.027C28.9109 34.7082 29.2504 34.2762 29.2504 33.7098V32.5371C29.2504 32.0742 28.8648 31.6418 28.1086 31.3543C27.7074 31.1996 27.2133 31.118 26.7348 31.118H24.7902C24.1422 31.118 23.8336 30.9227 23.7566 30.4906C23.7414 30.4391 23.7414 30.398 23.7414 30.3465V29.616C23.7414 29.575 23.7414 29.5336 23.7566 29.4824C23.8336 29.1531 24.0035 29.0605 24.5746 29.009L24.7289 28.9988H29.3121V27.9293H24.8063C24.1582 27.9293 23.8188 27.9703 23.5102 28.0629C22.5535 28.3613 22.1363 28.8344 22.1363 29.6574V30.5934C22.1363 31.3137 22.9547 31.9309 24.3277 32.075C24.4824 32.0848 24.6363 32.0957 24.7906 32.0957H26.4574C26.5191 32.0957 26.5809 32.0957 26.6273 32.1055C27.1367 32.1465 27.3523 32.2394 27.507 32.4242C27.5467 32.4608 27.5781 32.5054 27.5993 32.555C27.6205 32.6046 27.631 32.6582 27.6301 32.7121V33.6484C27.6301 33.7613 27.5531 33.9055 27.3988 34.0289C27.2602 34.1523 27.0285 34.2348 26.7199 34.2555L26.55 34.2656H22.1211V35.3352ZM39.2621 33.4734C39.2621 34.5738 40.0801 35.191 41.7309 35.3148C41.8852 35.325 42.0395 35.3352 42.1938 35.3352H46.3758V34.2656H42.1633C41.2219 34.2656 40.8672 34.0289 40.8672 33.4629V27.9285H39.2625V33.4734H39.2621ZM30.2746 33.5289V29.7144C30.2746 28.7457 30.9551 28.1578 32.3004 27.9723C32.4437 27.9517 32.5884 27.9414 32.7332 27.9414H35.7797C35.9344 27.9414 36.0734 27.9516 36.2277 27.9723C37.573 28.1578 38.2539 28.7453 38.2539 29.7144V33.5289C38.2539 34.3156 37.9648 34.7359 37.2988 35.0102L38.8801 36.4371H37.0164L35.7375 35.2824L34.45 35.3641H32.7332C32.4143 35.362 32.0971 35.317 31.7902 35.2301C30.7695 34.952 30.2746 34.4156 30.2746 33.5289V33.5289ZM32.0066 33.4363C32.0066 33.4879 32.0219 33.5398 32.0375 33.6016C32.1301 34.0449 32.548 34.2922 33.1816 34.2922H34.6395L33.3004 33.0832H35.1641L36.3316 34.1379C36.5473 34.0227 36.6887 33.8477 36.7383 33.6223C36.7535 33.5707 36.7535 33.5191 36.7535 33.4676V29.8082C36.7535 29.7672 36.7535 29.7152 36.7383 29.6637C36.6453 29.2512 36.2277 29.0144 35.6094 29.0144H33.1813C32.4703 29.0144 32.0062 29.3238 32.0062 29.8082V33.4363H32.0066Z" fill="#E48E00"/>
<path d="M47.7875 26.1531C46.8012 26.1262 46.0477 26.218 45.4032 26.4895C45.2199 26.5668 44.9282 26.5687 44.8985 26.798C44.9989 26.9039 45.0145 27.0613 45.0946 27.191C45.2485 27.4398 45.5082 27.7734 45.7399 27.948C45.9926 28.1391 46.2535 28.3437 46.5254 28.5094C47.0078 28.8039 47.5469 28.9719 48.0121 29.2664C48.286 29.4406 48.5578 29.6594 48.8254 29.8559C48.9578 29.9523 49.0461 30.1035 49.2184 30.1641V30.1363C49.1282 30.0215 49.1047 29.8637 49.0219 29.7434L48.6571 29.3785C48.3004 28.9051 47.8481 28.4898 47.3664 28.1445C46.9828 27.8691 46.1242 27.4969 45.9641 27.0504L45.936 27.0227C46.2078 26.9918 46.5266 26.8934 46.7774 26.8262C47.1992 26.7129 47.5762 26.7422 48.0117 26.6297L48.6008 26.4609V26.3492C48.3809 26.1234 48.2235 25.8242 47.9836 25.6199C47.3559 25.0852 46.6699 24.5508 45.9641 24.1047C45.5727 23.8578 45.0887 23.6973 44.6735 23.4879C44.5344 23.4172 44.2891 23.3809 44.1965 23.2633C43.9782 22.9855 43.8598 22.6336 43.6914 22.3098C43.3319 21.6102 42.9951 20.8991 42.6817 20.1777C42.4692 19.6914 42.3301 19.2117 42.0649 18.7754C40.791 16.6812 39.4199 15.4172 37.2961 14.175C36.8442 13.9105 36.3 13.8066 35.7254 13.6703L34.7996 13.6141C34.6117 13.5355 34.4157 13.3051 34.2387 13.1934C33.5348 12.7488 31.7301 11.782 31.209 13.0535C30.8801 13.8559 31.7012 14.6387 31.9946 15.0453C32.2004 15.3305 32.4645 15.65 32.6117 15.9707C32.7086 16.1816 32.725 16.393 32.8082 16.616C33.0117 17.1652 33.1895 17.7633 33.4531 18.2707C33.5864 18.5277 33.7336 18.7984 33.902 19.0281C34.0051 19.1687 34.1824 19.2312 34.2102 19.4488C34.0371 19.691 34.027 20.0676 33.9297 20.3742C33.4914 21.7566 33.6567 23.475 34.2946 24.498C34.4903 24.8125 34.9512 25.4859 35.5848 25.2273C36.1391 25.0016 36.0157 24.302 36.1742 23.6844C36.2102 23.5449 36.1879 23.4418 36.2582 23.348V23.3762L36.7633 24.3859C37.1371 24.9879 37.8 25.6164 38.3621 26.041C38.6535 26.2609 38.8832 26.6418 39.2598 26.7703V26.7418H39.2321C39.1586 26.6281 39.0449 26.5813 38.9512 26.4895C38.7317 26.2742 38.4875 26.007 38.3063 25.7602C37.7949 25.0664 37.3434 24.3066 36.9317 23.516C36.7352 23.1387 36.5645 22.7223 36.3989 22.3379C36.3348 22.1898 36.3356 21.9656 36.2028 21.8895C36.0207 22.1707 35.7539 22.3984 35.6133 22.7309C35.3891 23.2621 35.3602 23.9102 35.277 24.582L35.2207 24.6098C34.8297 24.5156 34.6926 24.1133 34.5473 23.7684C34.1801 22.8961 34.1117 21.491 34.4352 20.4867C34.5188 20.2266 34.8965 19.4082 34.7434 19.168C34.6703 18.9285 34.4293 18.7902 34.2949 18.6066C34.1186 18.361 33.9682 18.0977 33.8461 17.8211C33.5453 17.141 33.4051 16.3773 33.0891 15.6895C32.9375 15.3605 32.6821 15.0281 32.4719 14.7359C32.2395 14.4117 31.9789 14.1734 31.7985 13.782C31.7344 13.643 31.6473 13.4199 31.7422 13.277C31.7723 13.1805 31.8157 13.1402 31.911 13.1086C32.0735 12.9832 32.5266 13.1504 32.6961 13.2207C33.1461 13.4078 33.5215 13.5855 33.9028 13.8379C34.0856 13.9594 34.2703 14.1937 34.4918 14.2586H34.7442C35.1391 14.3492 35.5817 14.2863 35.9504 14.3984C36.6028 14.5969 37.1871 14.9051 37.7176 15.2402C39.3344 16.2613 40.6559 17.7145 41.5606 19.448C41.7059 19.7273 41.7692 19.9934 41.8969 20.2895C42.1555 20.8863 42.4813 21.5008 42.7383 22.0848C42.9949 22.6672 43.2453 23.2551 43.6082 23.7398C43.7989 23.9945 44.5356 24.1312 44.8703 24.2727C45.1051 24.3719 45.4895 24.4754 45.7117 24.609C46.1364 24.8652 46.5481 25.1703 46.9461 25.4508C47.1449 25.5922 47.7571 25.8996 47.7875 26.1531V26.1531ZM35.2489 15.466C35.0788 15.4632 34.9091 15.4821 34.7438 15.5223V15.55H34.7719C34.8699 15.752 35.043 15.8816 35.1645 16.0551L35.4453 16.6441L35.4731 16.6164C35.6469 16.4941 35.7262 16.2984 35.7254 15.9992C35.6555 15.9258 35.6453 15.834 35.5852 15.7469C35.5055 15.6297 35.35 15.5641 35.2489 15.466V15.466Z" fill="#00618A"/>
</svg>
