<svg width="50" height="50" viewBox="0 0 50 50" fill="none" xmlns="http://www.w3.org/2000/svg">
<path d="M44.0148 11.8492L26.7715 1.84726C25.6852 1.22851 24.2621 1.22851 23.1672 1.84726L5.78906 11.8492C4.66836 12.4941 3.90625 13.7062 3.90625 15.0027V34.9801C3.90625 36.2766 4.68438 37.4891 5.80547 38.1375L10.3871 40.75C12.5852 41.8328 13.1941 41.8328 14.1941 41.8328C17.4496 41.8328 19.1402 39.8645 19.1402 36.4312V16.7086C19.1406 16.4301 19.3145 16.0156 19.0406 16.0156H16.8445C16.5664 16.0156 16.0156 16.4301 16.0156 16.7082V36.4309C16.0156 37.9527 14.6031 39.4672 12.0305 38.1809L7.29531 35.4414C7.13047 35.3516 7.03125 35.1707 7.03125 34.9801V15.0027C7.03125 14.8145 7.21211 14.6254 7.3793 14.5289L24.7145 4.54414C24.7996 4.49893 24.8945 4.47528 24.9908 4.47528C25.0872 4.47528 25.1821 4.49893 25.2672 4.54414L42.4402 14.5266C42.6047 14.6254 42.5785 14.8086 42.5785 15.0027V34.9801C42.5785 35.1707 42.6145 35.3562 42.4523 35.448L25.2129 45.4387C25.0652 45.5273 24.873 45.5273 24.7109 45.4387L20.2902 42.8023C20.157 42.725 19.9965 42.6973 19.8684 42.7687C18.6398 43.4652 18.4117 43.5578 17.2594 43.9574C16.9754 44.0562 16.5566 44.2277 17.4187 44.7109L23.1992 48.1305C23.7511 48.4493 24.3771 48.6172 25.0145 48.6172C25.6543 48.6182 26.283 48.4503 26.8371 48.1305L44.0152 38.1375C45.1367 37.4844 45.7035 36.2766 45.7035 34.9801V15.0027C45.7031 13.7062 45.1363 12.4973 44.0148 11.8492V11.8492ZM30.3621 31.8145C25.7812 31.8145 24.7727 30.5508 24.4363 28.273C24.3965 28.0277 24.1887 27.7344 23.9387 27.7344H21.7004C21.4234 27.7344 21.2004 28.0703 21.2004 28.3461C21.2004 31.2625 22.7863 34.7961 30.3621 34.7961C35.8457 34.7961 38.9902 32.6652 38.9902 28.8941C38.9902 25.1551 36.4641 24.1738 31.1457 23.4699C25.7699 22.7594 25.2238 22.4004 25.2238 21.141C25.2238 20.1027 25.6863 18.718 29.6668 18.718C33.223 18.718 34.534 19.4812 35.0734 21.8785C35.1199 22.1039 35.3258 22.2656 35.5582 22.2656H37.8059C37.9441 22.2656 38.0758 22.2098 38.1727 22.1109C38.2668 22.0047 38.316 21.8715 38.3039 21.7285C37.9551 17.6 35.2129 15.6762 29.6664 15.6762C24.732 15.6762 21.7891 17.7598 21.7891 21.2523C21.7891 25.0406 24.7176 26.0875 29.4539 26.5559C35.1199 27.1113 35.5605 27.9395 35.5605 29.0539C35.5605 30.9898 34.0066 31.8145 30.3621 31.8145Z" fill="#83CD29"/>
</svg>
